<?xml version="1.0" encoding="iso-8859-1"?>
<!-- Uploaded to: SVG Repo, www.svgrepo.com, Generator: SVG Repo Mixer Tools -->
<!DOCTYPE svg PUBLIC "-//W3C//DTD SVG 1.1//EN" "http://www.w3.org/Graphics/SVG/1.1/DTD/svg11.dtd">
<svg fill="#000000" version="1.1" id="Capa_1" xmlns="http://www.w3.org/2000/svg" xmlns:xlink="http://www.w3.org/1999/xlink" 
	 width="800px" height="800px" viewBox="0 0 63.548 63.548"
	 xml:space="preserve">
<g>
	<g>
		<path d="M40.193,63.548l-20.599-20.6h12.709C30.447,23.369,19.994,7.141,6.61,3.247L2.751,2.126L6.61,1.007
			C8.912,0.339,11.268,0,13.617,0C31.136,0,45.788,18.388,48.02,42.952h12.776L40.193,63.548z M25.234,45.283l14.959,14.962
			l14.959-14.962h-9.296l-0.082-1.078C43.984,20.333,30.16,2.333,13.622,2.333c-0.825,0-1.646,0.047-2.468,0.138
			c12.832,5.978,22.119,22.052,23.592,41.558l0.091,1.259L25.234,45.283L25.234,45.283z"/>
	</g>
</g>
</svg>